<?xml version="1.0" encoding="UTF-8"?>
<!DOCTYPE svg PUBLIC "-//W3C//DTD SVG 1.1//EN" "http://www.w3.org/Graphics/SVG/1.1/DTD/svg11.dtd">
<!-- Creator: CorelDRAW X7 -->
<svg xmlns="http://www.w3.org/2000/svg" xml:space="preserve" width="5.82677in" height="8.26772in" version="1.1" style="shape-rendering:geometricPrecision; text-rendering:geometricPrecision; image-rendering:optimizeQuality; fill-rule:evenodd; clip-rule:evenodd"
viewBox="0 0 5827 8268"
 xmlns:xlink="http://www.w3.org/1999/xlink">
 <defs>
  <style type="text/css">
   <![CDATA[
    .fil1 {fill:#373435}
    .fil0 {fill:#FFF212}
   ]]>
  </style>
 </defs>
 <g id="Layer_x0020_1">
  <metadata id="CorelCorpID_0Corel-Layer"/>
  <g id="_1596069995904">
   <polygon class="fil0" points="2793,3200 2420,3200 2420,2827 2793,2827 "/>
   <path class="fil1" d="M2690 2987l47 -48 13 13 0 0c0,-8 -2,-36 -25,-58 -25,-25 -50,-10 -59,-2l0 0 -46 46 12 12 -25 24 -25 -24 11 -12 -46 -46 0 0c-9,-8 -34,-23 -59,2 -23,22 -25,50 -25,58l0 0 13 -13 47 48 13 -13 0 -31 14 13 0 38 18 19 -96 96 38 38 97 -96 96 96 38 -38 -96 -96 18 -19 0 -38 14 -13 0 31 13 13z"/>
   <path class="fil1" d="M2996 2986l-34 -62 -14 0 0 62 -34 0 0 -158 64 0c11,0 20,1 28,5 8,4 14,9 18,16 5,7 7,15 7,25 0,12 -3,21 -9,29 -7,8 -15,13 -27,17l39 66 -38 0zm-48 -129l0 40 26 0c7,0 12,-2 16,-5 4,-4 6,-9 6,-16 0,-7 -2,-12 -6,-15 -4,-3 -9,-4 -16,-4l-26 0zm182 6l32 0 0 123 -32 0 0 -14c-5,5 -10,10 -16,13 -6,3 -13,5 -21,5 -10,0 -19,-3 -27,-9 -8,-5 -14,-13 -19,-23 -4,-10 -6,-21 -6,-33 0,-13 2,-24 6,-34 5,-10 11,-18 19,-23 8,-6 17,-8 27,-8 8,0 15,1 21,4 6,4 11,8 16,14l0 -15zm-28 98c6,0 11,-2 15,-5 4,-2 7,-6 10,-12 2,-5 3,-12 3,-19 0,-8 -1,-14 -3,-20 -3,-5 -6,-9 -10,-12 -4,-3 -9,-4 -15,-4 -5,0 -10,1 -14,4 -4,3 -8,7 -10,12 -2,6 -4,12 -4,20 0,7 2,14 4,19 2,6 6,10 10,12 4,3 9,5 14,5zm102 -115c-5,0 -10,-2 -13,-6 -4,-3 -5,-8 -5,-13 0,-6 1,-11 5,-14 3,-4 8,-5 13,-5 6,0 11,1 14,5 3,3 5,8 5,14 0,5 -2,10 -5,13 -3,4 -8,6 -14,6zm16 140l-32 0 0 -123 32 0 0 123zm68 -123l34 0 0 28 -34 0 0 95 -32 0 0 -95 -21 0 0 -28 21 0 0 -8c0,-13 4,-24 11,-31 8,-7 19,-10 32,-10 5,0 10,0 15,1 4,1 8,2 12,4l-8 24c-4,-2 -9,-2 -14,-2 -6,0 -10,1 -12,4 -3,2 -4,6 -4,12l0 6zm95 0l34 0 0 28 -34 0 0 95 -32 0 0 -95 -21 0 0 -28 21 0 0 -8c0,-13 4,-24 12,-31 7,-7 18,-10 32,-10 5,0 9,0 14,1 4,1 8,2 12,4l-8 24c-4,-2 -9,-2 -14,-2 -6,0 -10,1 -12,4 -3,2 -4,6 -4,12l0 6zm157 73l-83 0c1,9 4,16 9,20 5,4 12,7 22,7 7,0 13,-1 19,-3 5,-2 10,-5 15,-9l13 22c-6,6 -13,10 -21,12 -9,3 -18,5 -27,5 -13,0 -25,-3 -35,-8 -9,-5 -17,-13 -22,-22 -5,-10 -7,-21 -7,-35 0,-13 2,-24 7,-34 5,-10 12,-18 21,-23 9,-6 20,-8 32,-8 11,0 21,2 30,8 9,5 16,12 20,22 5,10 7,21 7,35l0 11zm-57 -49c-15,0 -24,9 -26,27l51 0c-1,-9 -3,-16 -7,-21 -5,-4 -11,-6 -18,-6zm93 -41c-6,0 -10,-2 -14,-6 -3,-3 -5,-8 -5,-13 0,-6 2,-11 5,-14 4,-4 8,-5 14,-5 5,0 10,1 13,5 4,3 5,8 5,14 0,5 -1,10 -5,13 -3,4 -8,6 -13,6zm15 140l-32 0 0 -123 32 0 0 123zm68 4c-10,0 -19,-2 -28,-4 -8,-3 -16,-7 -22,-13l15 -23c9,9 21,13 35,13 6,0 11,-1 14,-3 4,-2 5,-5 5,-9 0,-3 -1,-6 -4,-8 -3,-2 -8,-4 -16,-6 -10,-2 -18,-4 -24,-7 -6,-3 -11,-6 -15,-11 -4,-5 -6,-11 -6,-19 0,-8 2,-15 6,-22 4,-6 10,-10 18,-14 8,-3 17,-4 27,-4 10,0 19,1 27,4 8,3 15,7 21,12l-15 22c-4,-4 -9,-7 -15,-9 -6,-2 -12,-3 -18,-3 -6,0 -10,1 -14,3 -3,2 -4,5 -4,8 0,3 0,4 2,6 1,1 3,3 7,4 3,2 8,3 14,4 8,2 15,5 21,8 6,2 11,6 15,12 4,5 6,11 6,19 0,8 -2,15 -6,21 -4,6 -10,10 -18,14 -7,3 -17,5 -28,5zm182 -54l-83 0c1,9 4,16 9,20 5,4 12,7 22,7 7,0 13,-1 18,-3 6,-2 11,-5 15,-9l14 22c-6,6 -13,10 -22,12 -8,3 -17,5 -26,5 -14,0 -25,-3 -35,-8 -10,-5 -17,-13 -22,-22 -5,-10 -8,-21 -8,-35 0,-13 3,-24 8,-34 5,-10 12,-18 21,-23 9,-6 20,-8 31,-8 12,0 22,2 31,8 9,5 15,12 20,22 5,10 7,21 7,35l0 11zm-58 -49c-14,0 -23,9 -25,27l51 0c-1,-9 -3,-16 -8,-21 -4,-4 -10,-6 -18,-6zm145 -27c10,0 17,1 24,5 7,4 12,10 15,17 4,7 6,16 6,26l0 78 -33 0 0 -74c0,-8 -1,-14 -5,-18 -4,-3 -9,-5 -17,-5 -5,0 -10,1 -15,3 -4,3 -8,6 -11,11l0 83 -32 0 0 -123 32 0 0 14c4,-5 9,-10 15,-13 7,-3 14,-4 21,-4z"/>
   <path class="fil1" d="M2906 3040l118 0 0 18 -48 0 0 141 -21 0 0 -141 -49 0 0 -18zm221 105l-85 0c2,26 14,39 37,39 7,0 14,-1 20,-3 6,-3 11,-6 15,-11l10 14c-6,6 -12,10 -20,13 -8,3 -16,5 -25,5 -12,0 -22,-3 -31,-8 -9,-5 -15,-12 -20,-21 -4,-10 -7,-21 -7,-34 0,-13 3,-24 7,-34 4,-10 11,-17 19,-22 8,-5 17,-8 28,-8 10,0 20,3 28,8 8,5 14,12 18,22 4,9 6,20 6,33l0 7zm-52 -52c-9,0 -17,3 -23,9 -5,7 -9,16 -10,28l66 0c-1,-12 -4,-21 -10,-28 -6,-6 -13,-9 -23,-9zm123 109c-11,0 -21,-3 -29,-8 -9,-5 -16,-12 -20,-22 -5,-9 -7,-20 -7,-33 0,-13 2,-24 7,-33 4,-10 11,-18 20,-23 8,-5 18,-8 29,-8 8,0 16,2 23,4 6,3 12,7 17,12l-11 14c-7,-8 -17,-12 -28,-12 -7,0 -14,2 -19,5 -6,4 -10,9 -13,16 -3,7 -5,15 -5,25 0,9 2,18 5,24 3,7 7,12 12,16 6,3 12,5 20,5 11,0 21,-4 29,-12l10 14c-5,5 -11,9 -18,12 -7,2 -14,4 -22,4zm119 -127c9,0 16,2 22,5 6,4 11,9 14,15 3,7 5,15 5,24l0 80 -20 0 0 -78c0,-9 -2,-16 -7,-21 -4,-5 -11,-7 -19,-7 -7,0 -13,1 -19,5 -5,3 -9,8 -13,14l0 87 -20 0 0 -168 20 0 0 64c4,-6 9,-11 15,-15 7,-3 14,-5 22,-5z"/>
  </g>
 </g>
</svg>
